<svg id="SvgjsSvg1366" width="1009" height="899.5" xmlns="http://www.w3.org/2000/svg" version="1.1" xmlns:xlink="http://www.w3.org/1999/xlink" xmlns:svgjs="http://svgjs.com/svgjs"><defs id="SvgjsDefs1367"><marker id="SvgjsMarker1446" markerWidth="16" markerHeight="12" refX="16" refY="6" viewBox="0 0 16 12" orient="auto" markerUnits="userSpaceOnUse"><path id="SvgjsPath1447" d="M0,2 L14,6 L0,11 L0,2" fill="#323232" stroke="#323232" stroke-width="2"></path></marker><marker id="SvgjsMarker1450" markerWidth="16" markerHeight="12" refX="16" refY="6" viewBox="0 0 16 12" orient="auto" markerUnits="userSpaceOnUse"><path id="SvgjsPath1451" d="M0,2 L14,6 L0,11 L0,2" fill="#323232" stroke="#323232" stroke-width="2"></path></marker><marker id="SvgjsMarker1474" markerWidth="16" markerHeight="12" refX="16" refY="6" viewBox="0 0 16 12" orient="auto" markerUnits="userSpaceOnUse"><path id="SvgjsPath1475" d="M0,2 L14,6 L0,11 L0,2" fill="#323232" stroke="#323232" stroke-width="2"></path></marker><marker id="SvgjsMarker1478" markerWidth="16" markerHeight="12" refX="0" refY="6" viewBox="0 0 16 12" orient="auto" markerUnits="userSpaceOnUse"><path id="SvgjsPath1479" d="M15,1.5 L2,6 L15,10.5" fill="#323232" stroke="#323232" stroke-width="2"></path></marker><marker id="SvgjsMarker1480" markerWidth="16" markerHeight="12" refX="16" refY="6" viewBox="0 0 16 12" orient="auto" markerUnits="userSpaceOnUse"><path id="SvgjsPath1481" d="M0,2 L14,6 L0,11 L0,2" fill="#323232" stroke="#323232" stroke-width="2"></path></marker><marker id="SvgjsMarker1484" markerWidth="16" markerHeight="12" refX="0" refY="6" viewBox="0 0 16 12" orient="auto" markerUnits="userSpaceOnUse"><path id="SvgjsPath1485" d="M15,1.5 L2,6 L15,10.5" fill="#323232" stroke="#323232" stroke-width="2"></path></marker><marker id="SvgjsMarker1486" markerWidth="16" markerHeight="12" refX="16" refY="6" viewBox="0 0 16 12" orient="auto" markerUnits="userSpaceOnUse"><path id="SvgjsPath1487" d="M0,2 L14,6 L0,11 L0,2" fill="#323232" stroke="#323232" stroke-width="2"></path></marker><marker id="SvgjsMarker1490" markerWidth="16" markerHeight="12" refX="0" refY="6" viewBox="0 0 16 12" orient="auto" markerUnits="userSpaceOnUse"><path id="SvgjsPath1491" d="M15,1.5 L2,6 L15,10.5" fill="#323232" stroke="#323232" stroke-width="2"></path></marker><marker id="SvgjsMarker1492" markerWidth="16" markerHeight="12" refX="16" refY="6" viewBox="0 0 16 12" orient="auto" markerUnits="userSpaceOnUse"><path id="SvgjsPath1493" d="M0,2 L14,6 L0,11 L0,2" fill="#323232" stroke="#323232" stroke-width="2"></path></marker><marker id="SvgjsMarker1496" markerWidth="16" markerHeight="12" refX="0" refY="6" viewBox="0 0 16 12" orient="auto" markerUnits="userSpaceOnUse"><path id="SvgjsPath1497" d="M15,1.5 L2,6 L15,10.5" fill="#323232" stroke="#323232" stroke-width="2"></path></marker><marker id="SvgjsMarker1498" markerWidth="16" markerHeight="12" refX="16" refY="6" viewBox="0 0 16 12" orient="auto" markerUnits="userSpaceOnUse"><path id="SvgjsPath1499" d="M0,2 L14,6 L0,11 L0,2" fill="#323232" stroke="#323232" stroke-width="2"></path></marker><marker id="SvgjsMarker1502" markerWidth="16" markerHeight="12" refX="0" refY="6" viewBox="0 0 16 12" orient="auto" markerUnits="userSpaceOnUse"><path id="SvgjsPath1503" d="M15,1.5 L2,6 L15,10.5" fill="#323232" stroke="#323232" stroke-width="2"></path></marker><marker id="SvgjsMarker1504" markerWidth="16" markerHeight="12" refX="16" refY="6" viewBox="0 0 16 12" orient="auto" markerUnits="userSpaceOnUse"><path id="SvgjsPath1505" d="M0,2 L14,6 L0,11 L0,2" fill="#323232" stroke="#323232" stroke-width="2"></path></marker><marker id="SvgjsMarker1538" markerWidth="16" markerHeight="12" refX="16" refY="6" viewBox="0 0 16 12" orient="auto" markerUnits="userSpaceOnUse"><path id="SvgjsPath1539" d="M0,2 L14,6 L0,11 L0,2" fill="#323232" stroke="#323232" stroke-width="2"></path></marker><marker id="SvgjsMarker1546" markerWidth="16" markerHeight="12" refX="16" refY="6" viewBox="0 0 16 12" orient="auto" markerUnits="userSpaceOnUse"><path id="SvgjsPath1547" d="M0,2 L14,6 L0,11 L0,2" fill="#323232" stroke="#323232" stroke-width="2"></path></marker><marker id="SvgjsMarker1564" markerWidth="16" markerHeight="12" refX="16" refY="6" viewBox="0 0 16 12" orient="auto" markerUnits="userSpaceOnUse"><path id="SvgjsPath1565" d="M0,2 L14,6 L0,11 L0,2" fill="#323232" stroke="#323232" stroke-width="2"></path></marker><marker id="SvgjsMarker1586" markerWidth="16" markerHeight="12" refX="16" refY="6" viewBox="0 0 16 12" orient="auto" markerUnits="userSpaceOnUse"><path id="SvgjsPath1587" d="M0,2 L14,6 L0,11 L0,2" fill="#323232" stroke="#323232" stroke-width="2"></path></marker><marker id="SvgjsMarker1594" markerWidth="16" markerHeight="12" refX="16" refY="6" viewBox="0 0 16 12" orient="auto" markerUnits="userSpaceOnUse"><path id="SvgjsPath1595" d="M0,2 L14,6 L0,11 L0,2" fill="#323232" stroke="#323232" stroke-width="2"></path></marker><marker id="SvgjsMarker1602" markerWidth="16" markerHeight="12" refX="16" refY="6" viewBox="0 0 16 12" orient="auto" markerUnits="userSpaceOnUse"><path id="SvgjsPath1603" d="M0,2 L14,6 L0,11 L0,2" fill="#323232" stroke="#323232" stroke-width="2"></path></marker><marker id="SvgjsMarker1610" markerWidth="16" markerHeight="12" refX="16" refY="6" viewBox="0 0 16 12" orient="auto" markerUnits="userSpaceOnUse"><path id="SvgjsPath1611" d="M0,2 L14,6 L0,11 L0,2" fill="#323232" stroke="#323232" stroke-width="2"></path></marker><marker id="SvgjsMarker1614" markerWidth="16" markerHeight="12" refX="16" refY="6" viewBox="0 0 16 12" orient="auto" markerUnits="userSpaceOnUse"><path id="SvgjsPath1615" d="M0,2 L14,6 L0,11 L0,2" fill="#323232" stroke="#323232" stroke-width="2"></path></marker></defs><g id="SvgjsG1368" transform="translate(162.15400109913156,502.5000000000002)"><path id="SvgjsPath1369" d="M 0 0L 617.9830219252979 0L 617.9830219252979 371.66666666666663L 0 371.66666666666663Z" stroke-dasharray="3,4" stroke="#323232" stroke-width="2" fill-opacity="1" fill="#ffffff"></path><g id="SvgjsG1370"><text id="SvgjsText1371" font-family="微软雅黑" text-anchor="middle" font-size="13px" width="0" fill="#323232" font-weight="400" align="middle" anchor="middle" family="微软雅黑" size="13px" weight="400" font-style="" y="175.88333333333333" transform="rotate(0)"></text></g></g><g id="SvgjsG1372" transform="translate(124.171875,25)"><path id="SvgjsPath1373" d="M 0 0L 247.4999999999999 0L 247.4999999999999 171.66666666666663L 0 171.66666666666663Z" stroke-dasharray="3,4" stroke="#323232" stroke-width="2" fill-opacity="1" fill="#ffffff"></path><g id="SvgjsG1374"><text id="SvgjsText1375" font-family="微软雅黑" text-anchor="middle" font-size="13px" width="0" fill="#323232" font-weight="400" align="middle" anchor="middle" family="微软雅黑" size="13px" weight="400" font-style="" y="75.88333333333331" transform="rotate(0)"></text></g></g><g id="SvgjsG1376" transform="translate(145.67196126556382,44.78881801575778)"><path id="SvgjsPath1377" d="M 0 4Q 0 0 4 0L 62.84210526315789 0Q 66.84210526315789 0 66.84210526315789 4L 66.84210526315789 44.68421052631578Q 66.84210526315789 48.68421052631578 62.84210526315789 48.68421052631578L 4 48.68421052631578Q 0 48.68421052631578 0 44.68421052631578Z" stroke="#323232" stroke-width="2" fill-opacity="1" fill="#ffffff"></path><g id="SvgjsG1378"><text id="SvgjsText1379" font-family="微软雅黑" text-anchor="middle" font-size="12px" width="35" fill="#323232" font-weight="400" align="middle" anchor="middle" family="微软雅黑" size="12px" weight="400" font-style="" y="0.04210526315789043" transform="rotate(0)"><tspan id="SvgjsTspan1380" dy="15" x="33.5"><tspan id="SvgjsTspan1381" style="text-decoration:;">Hive </tspan></tspan><tspan id="SvgjsTspan1382" dy="15" x="33.5"><tspan id="SvgjsTspan1383" style="text-decoration:;">Server </tspan></tspan><tspan id="SvgjsTspan1384" dy="15" x="33.5"><tspan id="SvgjsTspan1385" style="text-decoration:;">Hooks</tspan></tspan></text></g></g><g id="SvgjsG1386" transform="translate(274.671875,45.44630788187378)"><path id="SvgjsPath1387" d="M 0 4Q 0 0 4 0L 86.82352941176458 0Q 90.82352941176458 0 90.82352941176458 4L 90.82352941176458 43.626207595092126Q 90.82352941176458 47.626207595092126 86.82352941176458 47.626207595092126L 4 47.626207595092126Q 0 47.626207595092126 0 43.626207595092126Z" stroke="#323232" stroke-width="2" fill-opacity="1" fill="#ffffff"></path><g id="SvgjsG1388"><text id="SvgjsText1389" font-family="微软雅黑" text-anchor="middle" font-size="13px" width="21" fill="#323232" font-weight="400" align="middle" anchor="middle" family="微软雅黑" size="13px" weight="400" font-style="" y="13.863103797546064" transform="rotate(0)"><tspan id="SvgjsTspan1390" dy="16" x="45.5"><tspan id="SvgjsTspan1391" style="text-decoration:;">IDP</tspan></tspan></text></g></g><g id="SvgjsG1392" transform="translate(198.27852319944603,232.4999999999999)"><path id="SvgjsPath1393" d="M 0 4Q 0 0 4 0L 548.0775623268684 0Q 552.0775623268684 0 552.0775623268684 4L 552.0775623268684 21.52631578947367Q 552.0775623268684 25.52631578947367 548.0775623268684 25.52631578947367L 4 25.52631578947367Q 0 25.52631578947367 0 21.52631578947367Z" stroke="#323232" stroke-width="2" fill-opacity="1" fill="#ffffff"></path><g id="SvgjsG1394"><text id="SvgjsText1395" font-family="微软雅黑" text-anchor="middle" font-size="13px" width="92" fill="#323232" font-weight="400" align="middle" anchor="middle" family="微软雅黑" size="13px" weight="400" font-style="" y="2.813157894736835" transform="rotate(0)"><tspan id="SvgjsTspan1396" dy="16" x="276.5"><tspan id="SvgjsTspan1397" style="text-decoration:;">MetaData-Sref</tspan></tspan></text></g></g><g id="SvgjsG1398" transform="translate(424.8851713988917,322.49999999999966)"><path id="SvgjsPath1399" d="M 15 0L 88.33333333333333 0C 103.18181818181819 0 103.18181818181819 70 88.33333333333333 70L 15 70C -5 70 -5 0 15 0ZM 88.33333333333333 0C 73.75 0 73.75 70 88.33333333333333 70C 73.75 70 73.75 0 88.33333333333333 0" stroke="#323232" stroke-width="2" fill-opacity="1" fill="#ffffff"></path><g id="SvgjsG1400"><text id="SvgjsText1401" font-family="微软雅黑" text-anchor="middle" font-size="13px" width="18" fill="#323232" font-weight="400" align="middle" anchor="middle" family="微软雅黑" size="13px" weight="400" font-style="" y="25.05" transform="rotate(0)"><tspan id="SvgjsTspan1402" dy="16" x="40"><tspan id="SvgjsTspan1403" style="text-decoration:;">DB</tspan></tspan></text></g></g><g id="SvgjsG1404" transform="translate(378.312741873065,45.25096933677631)"><path id="SvgjsPath1405" d="M 0 4Q 0 0 4 0L 57.05263157894723 0Q 61.05263157894723 0 61.05263157894723 4L 61.05263157894723 45.075056857793754Q 61.05263157894723 49.075056857793754 57.05263157894723 49.075056857793754L 4 49.075056857793754Q 0 49.075056857793754 0 45.075056857793754Z" stroke="#323232" stroke-width="2" fill-opacity="1" fill="#ffffff"></path><g id="SvgjsG1406"><text id="SvgjsText1407" font-family="微软雅黑" text-anchor="middle" font-size="13px" width="34" fill="#323232" font-weight="400" align="middle" anchor="middle" family="微软雅黑" size="13px" weight="400" font-style="" y="6.587528428896877" transform="rotate(0)"><tspan id="SvgjsTspan1408" dy="16" x="31"><tspan id="SvgjsTspan1409" style="text-decoration:;">Asset </tspan></tspan><tspan id="SvgjsTspan1410" dy="16" x="31"><tspan id="SvgjsTspan1411" style="text-decoration:;">Web</tspan></tspan></text></g></g><g id="SvgjsG1412" transform="translate(469.30345394736764,43.61512217190696)"><path id="SvgjsPath1413" d="M 0 4Q 0 0 4 0L 69.68421052631629 0Q 73.68421052631629 0 73.68421052631629 4L 73.68421052631629 47.28857901502576Q 73.68421052631629 51.28857901502576 69.68421052631629 51.28857901502576L 4 51.28857901502576Q 0 51.28857901502576 0 47.28857901502576Z" stroke="#323232" stroke-width="2" fill-opacity="1" fill="#ffffff"></path><g id="SvgjsG1414"><text id="SvgjsText1415" font-family="微软雅黑" text-anchor="middle" font-size="13px" width="49" fill="#323232" font-weight="400" align="middle" anchor="middle" family="微软雅黑" size="13px" weight="400" font-style="" y="7.69428950751288" transform="rotate(0)"><tspan id="SvgjsTspan1416" dy="16" x="37"><tspan id="SvgjsTspan1417" style="text-decoration:;">Security</tspan></tspan><tspan id="SvgjsTspan1418" dy="16" x="37"><tspan id="SvgjsTspan1419" style="text-decoration:;">Web</tspan></tspan></text></g></g><g id="SvgjsG1420" transform="translate(569.2489730885654,44.025557175632116)"><path id="SvgjsPath1421" d="M 0 4Q 0 0 4 0L 61.26315789473779 0Q 65.26315789473779 0 65.26315789473779 4L 65.26315789473779 46.46770900757545Q 65.26315789473779 50.46770900757545 61.26315789473779 50.46770900757545L 4 50.46770900757545Q 0 50.46770900757545 0 46.46770900757545Z" stroke="#323232" stroke-width="2" fill-opacity="1" fill="#ffffff"></path><g id="SvgjsG1422"><text id="SvgjsText1423" font-family="微软雅黑" text-anchor="middle" font-size="13px" width="42" fill="#323232" font-weight="400" align="middle" anchor="middle" family="微软雅黑" size="13px" weight="400" font-style="" y="7.283854503787725" transform="rotate(0)"><tspan id="SvgjsTspan1424" dy="16" x="33"><tspan id="SvgjsTspan1425" style="text-decoration:;font-size: inherit;">Quality</tspan></tspan><tspan id="SvgjsTspan1426" dy="16" x="33"><tspan id="SvgjsTspan1427" style="text-decoration:;font-size: inherit;">Web</tspan></tspan></text></g></g><g id="SvgjsG1428" transform="translate(459.0468567757686,264.34210526315746)"><path id="SvgjsPath1429" d="M 14.840720221606688 0L 29.681440443213376 14.840720221606688L 19.886565096952964 14.840720221606688L 19.886565096952964 35.159279778393255L 29.681440443213376 35.159279778393255L 14.840720221606688 49.99999999999994L 0 35.159279778393255L 9.794875346260415 35.159279778393255L 9.794875346260415 14.840720221606688L 0 14.840720221606688L 14.840720221606688 0Z" stroke="#323232" stroke-width="2" fill-opacity="1" fill="#ffffff"></path><g id="SvgjsG1430"><text id="SvgjsText1431" font-family="微软雅黑" text-anchor="middle" font-size="13px" width="0" fill="#323232" font-weight="400" align="middle" anchor="middle" family="微软雅黑" size="13px" weight="400" font-style="" y="15.049999999999972" transform="rotate(0)"></text></g></g><g id="SvgjsG1432" transform="translate(665.5647625622497,45.07818875457947)"><path id="SvgjsPath1433" d="M 0 4Q 0 0 4 0L 69.21237559564474 0Q 73.21237559564474 0 73.21237559564474 4L 73.21237559564474 44.36244584968074Q 73.21237559564474 48.36244584968074 69.21237559564474 48.36244584968074L 4 48.36244584968074Q 0 48.36244584968074 0 44.36244584968074Z" stroke="#323232" stroke-width="2" fill-opacity="1" fill="#ffffff"></path><g id="SvgjsG1434"><text id="SvgjsText1435" font-family="微软雅黑" text-anchor="middle" font-size="13px" width="52" fill="#323232" font-weight="400" align="middle" anchor="middle" family="微软雅黑" size="13px" weight="400" font-style="" y="14.23122292484037" transform="rotate(0)"><tspan id="SvgjsTspan1436" dy="16" x="37"><tspan id="SvgjsTspan1437" style="text-decoration:;">数据地图</tspan></tspan></text></g></g><g id="SvgjsG1438" transform="translate(662.9303182205655,322.72160664819916)"><path id="SvgjsPath1439" d="M 15 0L 88.33333333333333 0C 103.18181818181819 0 103.18181818181819 70 88.33333333333333 70L 15 70C -5 70 -5 0 15 0ZM 88.33333333333333 0C 73.75 0 73.75 70 88.33333333333333 70C 73.75 70 73.75 0 88.33333333333333 0" stroke="#323232" stroke-width="2" fill-opacity="1" fill="#ffffff"></path><g id="SvgjsG1440"><text id="SvgjsText1441" font-family="微软雅黑" text-anchor="middle" font-size="13px" width="17" fill="#323232" font-weight="400" align="middle" anchor="middle" family="微软雅黑" size="13px" weight="400" font-style="" y="25.05" transform="rotate(0)"><tspan id="SvgjsTspan1442" dy="16" x="40"><tspan id="SvgjsTspan1443" style="text-decoration:;">ES</tspan></tspan></text></g></g><g id="SvgjsG1444"><path id="SvgjsPath1445" d="M524.8851713988918 357.49999999999966L593.9077448097287 357.49999999999966L593.9077448097287 357.72160664819916L662.9303182205655 357.72160664819916" stroke="#323232" stroke-width="2" fill="none" marker-end="url(#SvgjsMarker1446)"></path></g><g id="SvgjsG1448"><path id="SvgjsPath1449" d="M762.9303182205655 357.72160664819916L792.9303182205655 357.72160664819916L792.9303182205655 69.25941167941984L738.7771381578945 69.25941167941984" stroke="#323232" stroke-width="2" fill="none" marker-end="url(#SvgjsMarker1450)"></path></g><g id="SvgjsG1452" transform="translate(313.142463235294,145.13157894736838)"><path id="SvgjsPath1453" d="M 0 4Q 0 0 4 0L 428.2964851575293 0Q 432.2964851575293 0 432.2964851575293 4L 432.2964851575293 23.662538699690344Q 432.2964851575293 27.662538699690344 428.2964851575293 27.662538699690344L 4 27.662538699690344Q 0 27.662538699690344 0 23.662538699690344Z" stroke="#323232" stroke-width="2" fill-opacity="1" fill="#ffffff"></path><g id="SvgjsG1454"><text id="SvgjsText1455" font-family="微软雅黑" text-anchor="middle" font-size="13px" width="166" fill="#323232" font-weight="400" align="middle" anchor="middle" family="微软雅黑" size="13px" weight="400" font-style="" y="3.881269349845172" transform="rotate(0)"><tspan id="SvgjsTspan1456" dy="16" x="216.5"><tspan id="SvgjsTspan1457" style="text-decoration:;">MetaData Rpc SDK/Restful</tspan></tspan></text></g></g><g id="SvgjsG1458" transform="translate(458.1687174121971,174.86842105263148)"><path id="SvgjsPath1459" d="M 13.760570053943837 0L 27.521140107887675 13.760570053943837L 18.439163872284745 13.760570053943837L 18.439163872284745 37.292061525003476L 27.521140107887675 37.292061525003476L 13.760570053943837 51.05263157894731L 0 37.292061525003476L 9.081976235602934 37.292061525003476L 9.081976235602934 13.760570053943837L 0 13.760570053943837L 13.760570053943837 0Z" stroke="#323232" stroke-width="2" fill-opacity="1" fill="#ffffff"></path><g id="SvgjsG1460"><text id="SvgjsText1461" font-family="微软雅黑" text-anchor="middle" font-size="13px" width="0" fill="#323232" font-weight="400" align="middle" anchor="middle" family="微软雅黑" size="13px" weight="400" font-style="" y="15.576315789473657" transform="rotate(0)"></text></g></g><g id="SvgjsG1462" transform="translate(145.92558202297556,144.54334365325073)"><path id="SvgjsPath1463" d="M 0 4Q 0 0 4 0L 146.49861495844854 0Q 150.49861495844854 0 150.49861495844854 4L 150.49861495844854 24.83900928792565Q 150.49861495844854 28.83900928792565 146.49861495844854 28.83900928792565L 4 28.83900928792565Q 0 28.83900928792565 0 24.83900928792565Z" stroke="#323232" stroke-width="2" fill-opacity="1" fill="#ffffff"></path><g id="SvgjsG1464"><text id="SvgjsText1465" font-family="微软雅黑" text-anchor="middle" font-size="13px" width="35" fill="#323232" font-weight="400" align="middle" anchor="middle" family="微软雅黑" size="13px" weight="400" font-style="" y="4.469504643962824" transform="rotate(0)"><tspan id="SvgjsTspan1466" dy="16" x="75.5"><tspan id="SvgjsTspan1467" style="text-decoration:;">Kafka</tspan></tspan></text></g></g><g id="SvgjsG1468" transform="translate(204.44823631852137,176.60945183026763)"><path id="SvgjsPath1469" d="M 11.513166042040094 0L 23.37521590353595 0L 23.37521590353595 31.719895714518486L 34.88838194557604 31.719895714518486L 17.44419097278802 49.16408668730651L 0 31.719895714518486L 11.513166042040094 31.719895714518486L 11.513166042040094 0Z" stroke="#323232" stroke-width="2" fill-opacity="1" fill="#ffffff"></path><g id="SvgjsG1470"><text id="SvgjsText1471" font-family="微软雅黑" text-anchor="middle" font-size="13px" width="0" fill="#323232" font-weight="400" align="middle" anchor="middle" family="微软雅黑" size="13px" weight="400" font-style="" y="12.17383900928793" transform="rotate(0)"></text></g></g><g id="SvgjsG1472"><path id="SvgjsPath1473" d="M179.09301389714275 93.47302854207356L179.09301389714275 119.01592603574261L179.02481617647064 119.01592603574261L179.02481617647064 144.55882352941168" stroke="#323232" stroke-width="2" fill="none" marker-end="url(#SvgjsMarker1474)"></path></g><g id="SvgjsG1476"><path id="SvgjsPath1477" d="M408.83905766253866 94.32602619457006L408.83905766253866 119.73654250904968L409.02481617647044 119.73654250904968L409.02481617647044 145.14705882352933" stroke="#323232" stroke-width="2" fill="none" marker-start="url(#SvgjsMarker1478)" marker-end="url(#SvgjsMarker1480)"></path></g><g id="SvgjsG1482"><path id="SvgjsPath1483" d="M506.1455592105258 94.90370118693272L506.1455592105258 120.02538000523103L506.0836397058822 120.02538000523103L506.0836397058822 145.14705882352933" stroke="#323232" stroke-width="2" fill="none" marker-start="url(#SvgjsMarker1484)" marker-end="url(#SvgjsMarker1486)"></path></g><g id="SvgjsG1488"><path id="SvgjsPath1489" d="M601.8805520359343 94.49326618320757L601.8805520359343 119.82016250336846L601.9659926470586 119.82016250336846L601.9659926470586 145.14705882352933" stroke="#323232" stroke-width="2" fill="none" marker-start="url(#SvgjsMarker1490)" marker-end="url(#SvgjsMarker1492)"></path></g><g id="SvgjsG1494"><path id="SvgjsPath1495" d="M702.1709503600721 93.4406346042602L702.1709503600721 119.29384671389477L701.9659926470586 119.29384671389477L701.9659926470586 145.14705882352933" stroke="#323232" stroke-width="2" fill="none" marker-start="url(#SvgjsMarker1496)" marker-end="url(#SvgjsMarker1498)"></path></g><g id="SvgjsG1500"><path id="SvgjsPath1501" d="M274.671875 69.25941167941984L243.59297076436087 69.25941167941984L243.59297076436087 69.13092327891567L212.5140665287217 69.13092327891567" stroke="#323232" stroke-width="2" fill="none" marker-start="url(#SvgjsMarker1502)" marker-end="url(#SvgjsMarker1504)"></path><rect id="SvgjsRect1506" width="26" height="16" x="230.59297076436087" y="61.195167479167736" fill="#ffffff"></rect><text id="SvgjsText1507" font-family="微软雅黑" text-anchor="middle" font-size="13px" width="26" fill="#323232" font-weight="400" align="top" anchor="middle" family="微软雅黑" size="13px" weight="400" font-style="" y="59.24516747916773" transform="rotate(0)"><tspan id="SvgjsTspan1508" dy="16" x="243.59297076436087"><tspan id="SvgjsTspan1509" style="text-decoration:;">DDL</tspan></tspan></text></g><g id="SvgjsG1510" transform="translate(242.0221864080354,525.0000000000002)"><path id="SvgjsPath1511" d="M 0 4Q 0 0 4 0L 96 0Q 100 0 100 4L 100 66Q 100 70 96 70L 4 70Q 0 70 0 66Z" stroke="#323232" stroke-width="2" fill-opacity="1" fill="#ffffff"></path><g id="SvgjsG1512"><text id="SvgjsText1513" font-family="微软雅黑" text-anchor="middle" font-size="13px" width="52" fill="#323232" font-weight="400" align="middle" anchor="middle" family="微软雅黑" size="13px" weight="400" font-style="" y="25.05" transform="rotate(0)"><tspan id="SvgjsTspan1514" dy="16" x="50"><tspan id="SvgjsTspan1515" style="text-decoration:;">血缘系统</tspan></tspan></text></g></g><g id="SvgjsG1516" transform="translate(420.35551974136825,524.9999999999998)"><path id="SvgjsPath1517" d="M 0 4Q 0 0 4 0L 96 0Q 100 0 100 4L 100 66Q 100 70 96 70L 4 70Q 0 70 0 66Z" stroke="#323232" stroke-width="2" fill-opacity="1" fill="#ffffff"></path><g id="SvgjsG1518"><text id="SvgjsText1519" font-family="微软雅黑" text-anchor="middle" font-size="13px" width="65" fill="#323232" font-weight="400" align="middle" anchor="middle" family="微软雅黑" size="13px" weight="400" font-style="" y="17.05" transform="rotate(0)"><tspan id="SvgjsTspan1520" dy="16" x="50"><tspan id="SvgjsTspan1521" style="text-decoration:;">HiveServer </tspan></tspan><tspan id="SvgjsTspan1522" dy="16" x="50"><tspan id="SvgjsTspan1523" style="text-decoration:;">Hooks</tspan></tspan></text></g></g><g id="SvgjsG1524" transform="translate(603.5746739004162,524.9999999999999)"><path id="SvgjsPath1525" d="M 0 4Q 0 0 4 0L 96 0Q 100 0 100 4L 100 66Q 100 70 96 70L 4 70Q 0 70 0 66Z" stroke="#323232" stroke-width="2" fill-opacity="1" fill="#ffffff"></path><g id="SvgjsG1526"><text id="SvgjsText1527" font-family="微软雅黑" text-anchor="middle" font-size="13px" width="21" fill="#323232" font-weight="400" align="middle" anchor="middle" family="微软雅黑" size="13px" weight="400" font-style="" y="25.05" transform="rotate(0)"><tspan id="SvgjsTspan1528" dy="16" x="50"><tspan id="SvgjsTspan1529" style="text-decoration:;">IDP</tspan></tspan></text></g></g><g id="SvgjsG1530" transform="translate(241.18885307470202,680.0000000000008)"><path id="SvgjsPath1531" d="M 0 4Q 0 0 4 0L 458.38582082571395 0Q 462.38582082571395 0 462.38582082571395 4L 462.38582082571395 41Q 462.38582082571395 45 458.38582082571395 45L 4 45Q 0 45 0 41Z" stroke="#323232" stroke-width="2" fill-opacity="1" fill="#ffffff"></path><g id="SvgjsG1532"><text id="SvgjsText1533" font-family="微软雅黑" text-anchor="middle" font-size="13px" width="35" fill="#323232" font-weight="400" align="middle" anchor="middle" family="微软雅黑" size="13px" weight="400" font-style="" y="12.55" transform="rotate(0)"><tspan id="SvgjsTspan1534" dy="16" x="231.5"><tspan id="SvgjsTspan1535" style="text-decoration:;">Kafka</tspan></tspan></text></g></g><g id="SvgjsG1536"><path id="SvgjsPath1537" d="M653.5746739004162 595.0000000000002L653.5746739004162 637.916666666667L653.338541666667 637.916666666667L653.338541666667 680.8333333333337" stroke="#323232" stroke-width="2" fill="none" marker-end="url(#SvgjsMarker1538)"></path><rect id="SvgjsRect1540" width="8" height="16" x="649.4566077835416" y="629.916666666667" fill="#ffffff"></rect><text id="SvgjsText1541" font-family="微软雅黑" text-anchor="middle" font-size="13px" width="8" fill="#323232" font-weight="400" align="top" anchor="middle" family="微软雅黑" size="13px" weight="400" font-style="" y="627.9666666666669" transform="rotate(0)"><tspan id="SvgjsTspan1542" dy="16" x="653.4566077835416"><tspan id="SvgjsTspan1543" style="text-decoration:;">5</tspan></tspan></text></g><g id="SvgjsG1544"><path id="SvgjsPath1545" d="M292.0221864080352 595.0000000000005L292.0221864080352 637.9166666666671L291.67187499999994 637.9166666666671L291.67187499999994 680.8333333333337" stroke="#323232" stroke-width="2" fill="none" marker-end="url(#SvgjsMarker1546)"></path><rect id="SvgjsRect1548" width="8" height="16" x="287.8470307040176" y="629.9166666666671" fill="#ffffff"></rect><text id="SvgjsText1549" font-family="微软雅黑" text-anchor="middle" font-size="13px" width="8" fill="#323232" font-weight="400" align="top" anchor="middle" family="微软雅黑" size="13px" weight="400" font-style="" y="627.966666666667" transform="rotate(0)"><tspan id="SvgjsTspan1550" dy="16" x="291.8470307040176"><tspan id="SvgjsTspan1551" style="text-decoration:;">3</tspan></tspan></text></g><g id="SvgjsG1552" transform="translate(241.18885307470202,793.3333333333337)"><path id="SvgjsPath1553" d="M 0 4Q 0 0 4 0L 458.38582082571395 0Q 462.38582082571395 0 462.38582082571395 4L 462.38582082571395 36.83333333333337Q 462.38582082571395 40.83333333333337 458.38582082571395 40.83333333333337L 4 40.83333333333337Q 0 40.83333333333337 0 36.83333333333337Z" stroke="#323232" stroke-width="2" fill-opacity="1" fill="#ffffff"></path><g id="SvgjsG1554"><text id="SvgjsText1555" font-family="微软雅黑" text-anchor="middle" font-size="13px" width="92" fill="#323232" font-weight="400" align="middle" anchor="middle" family="微软雅黑" size="13px" weight="400" font-style="" y="10.466666666666686" transform="rotate(0)"><tspan id="SvgjsTspan1556" dy="16" x="231.5"><tspan id="SvgjsTspan1557" style="text-decoration:;">MetaData-Sref</tspan></tspan></text></g></g><g id="SvgjsG1558" transform="translate(456.6718749999998,729.166666666667)"><path id="SvgjsPath1559" d="M 14.166666666666657 0L 28.333333333333314 14.166666666666657L 18.98333333333332 14.166666666666657L 18.98333333333332 40.83333333333334L 28.333333333333314 40.83333333333334L 14.166666666666657 55L 0 40.83333333333334L 9.349999999999994 40.83333333333334L 9.349999999999994 14.166666666666657L 0 14.166666666666657L 14.166666666666657 0Z" stroke="#323232" stroke-width="2" fill-opacity="1" fill="#ffffff"></path><g id="SvgjsG1560"><text id="SvgjsText1561" font-family="微软雅黑" text-anchor="middle" font-size="13px" width="0" fill="#323232" font-weight="400" align="middle" anchor="middle" family="微软雅黑" size="13px" weight="400" font-style="" y="17.55" transform="rotate(0)"></text></g></g><g id="SvgjsG1562"><path id="SvgjsPath1563" d="M124.171875 110.83333333333331L94.171875 110.83333333333331L94.171875 688.3333333333336L162.15400109913156 688.3333333333336" stroke-dasharray="3,3" stroke="#323232" stroke-width="2" fill="none" marker-end="url(#SvgjsMarker1564)"></path><rect id="SvgjsRect1566" width="52" height="16" x="68.171875" y="410.5743963828993" fill="#ffffff"></rect><text id="SvgjsText1567" font-family="微软雅黑" text-anchor="middle" font-size="13px" width="52" fill="#323232" font-weight="400" align="top" anchor="middle" family="微软雅黑" size="13px" weight="400" font-style="" y="408.6243963828993" transform="rotate(0)"><tspan id="SvgjsTspan1568" dy="16" x="94.171875"><tspan id="SvgjsTspan1569" style="text-decoration:;">细节放大</tspan></tspan></text></g><g id="SvgjsG1570"><path id="SvgjsPath1571" d="M25.00520833333333 405.83333333333314L504.5885416666665 405.83333333333314L504.5885416666665 405.83333333333314L984.1718749999999 405.83333333333314" stroke-dasharray="8,5" stroke="#323232" stroke-width="2" fill="none"></path></g><g id="SvgjsG1572" transform="translate(852.5052083333333,199.16666666666663)"><path id="SvgjsPath1573" d="M 0 0L 119.99999999999999 0L 119.99999999999999 66.66666666666666L 0 66.66666666666666Z" stroke="none" fill="none"></path><g id="SvgjsG1574"><text id="SvgjsText1575" font-family="微软雅黑" text-anchor="middle" font-size="13px" width="65" fill="#323232" font-weight="400" align="middle" anchor="middle" family="微软雅黑" size="13px" weight="400" font-style="" y="23.38333333333333" transform="rotate(0)"><tspan id="SvgjsTspan1576" dy="16" x="60"><tspan id="SvgjsTspan1577" style="text-decoration:;">整体架构图</tspan></tspan></text></g></g><g id="SvgjsG1578" transform="translate(859.171875,618.3333333333333)"><path id="SvgjsPath1579" d="M 0 0L 119.99999999999999 0L 119.99999999999999 66.66666666666666L 0 66.66666666666666Z" stroke="none" fill="none"></path><g id="SvgjsG1580"><text id="SvgjsText1581" font-family="微软雅黑" text-anchor="middle" font-size="13px" width="65" fill="#323232" font-weight="400" align="middle" anchor="middle" family="微软雅黑" size="13px" weight="400" font-style="" y="23.38333333333333" transform="rotate(0)"><tspan id="SvgjsTspan1582" dy="16" x="60"><tspan id="SvgjsTspan1583" style="text-decoration:;">细节放大图</tspan></tspan></text></g></g><g id="SvgjsG1584"><path id="SvgjsPath1585" d="M604.1718749999999 543.3333333333333L562.0885416666665 543.3333333333333L562.0885416666665 543.3333333333333L520.0052083333333 543.3333333333333" stroke="#323232" stroke-width="2" fill="none" marker-end="url(#SvgjsMarker1586)"></path><rect id="SvgjsRect1588" width="5" height="16" x="559.5885416666665" y="535.3333333333333" fill="#ffffff"></rect><text id="SvgjsText1589" font-family="微软雅黑" text-anchor="middle" font-size="13px" width="5" fill="#323232" font-weight="400" align="top" anchor="middle" family="微软雅黑" size="13px" weight="400" font-style="" y="533.3833333333332" transform="rotate(0)"><tspan id="SvgjsTspan1590" dy="16" x="562.0885416666665"><tspan id="SvgjsTspan1591" style="text-decoration:;">1</tspan></tspan></text></g><g id="SvgjsG1592"><path id="SvgjsPath1593" d="M420.83854166666663 544.1666666666666L381.25520833333326 544.1666666666666L381.25520833333326 544.1666666666666L341.67187499999994 544.1666666666666" stroke="#323232" stroke-width="2" fill="none" marker-end="url(#SvgjsMarker1594)"></path><rect id="SvgjsRect1596" width="8" height="16" x="377.2552083333333" y="536.1666666666666" fill="#ffffff"></rect><text id="SvgjsText1597" font-family="微软雅黑" text-anchor="middle" font-size="13px" width="8" fill="#323232" font-weight="400" align="top" anchor="middle" family="微软雅黑" size="13px" weight="400" font-style="" y="534.2166666666666" transform="rotate(0)"><tspan id="SvgjsTspan1598" dy="16" x="381.2552083333333"><tspan id="SvgjsTspan1599" style="text-decoration:;">2</tspan></tspan></text></g><g id="SvgjsG1600"><path id="SvgjsPath1601" d="M341.67187499999994 579.1666666666666L371.67187499999994 579.1666666666666L371.67187499999994 624.9999999999999L622.5052083333333 624.9999999999999L622.5052083333333 594.9999999999999" stroke="#323232" stroke-width="2" fill="none" marker-end="url(#SvgjsMarker1602)"></path><rect id="SvgjsRect1604" width="8" height="16" x="470.171875" y="616.9999999999999" fill="#ffffff"></rect><text id="SvgjsText1605" font-family="微软雅黑" text-anchor="middle" font-size="13px" width="8" fill="#323232" font-weight="400" align="top" anchor="middle" family="微软雅黑" size="13px" weight="400" font-style="" y="615.0499999999998" transform="rotate(0)"><tspan id="SvgjsTspan1606" dy="16" x="474.171875"><tspan id="SvgjsTspan1607" style="text-decoration:;">4</tspan></tspan></text></g><g id="SvgjsG1608"><path id="SvgjsPath1609" d="M334.17187499999994 145.83333333333331L334.17187499999994 119.16666666666663L334.17187499999994 119.16666666666663L334.17187499999994 92.49999999999997" stroke="#323232" stroke-width="2" fill="none" marker-end="url(#SvgjsMarker1610)"></path></g><g id="SvgjsG1612"><path id="SvgjsPath1613" d="M275.0052083333333 82.49999999999997L250.83854166666663 82.49999999999997L250.83854166666663 144.99999999999997" stroke="#323232" stroke-width="2" fill="none" marker-end="url(#SvgjsMarker1614)"></path><rect id="SvgjsRect1616" width="91" height="16" x="205.33854166666663" y="93.66666666666663" fill="#ffffff"></rect><text id="SvgjsText1617" font-family="微软雅黑" text-anchor="middle" font-size="13px" width="91" fill="#323232" font-weight="400" align="top" anchor="middle" family="微软雅黑" size="13px" weight="400" font-style="" y="91.71666666666663" transform="rotate(0)"><tspan id="SvgjsTspan1618" dy="16" x="250.83854166666663"><tspan id="SvgjsTspan1619" style="text-decoration:;">业务元数据更新</tspan></tspan></text></g></svg>